<?xml version="1.0" encoding="UTF-8" standalone="no"?>
<!-- Created with Inkscape (http://www.inkscape.org/) -->

<svg
   width="325px"
   height="200px"
   viewBox="0 0 325 200"
   version="1.1"
   id="SVGRoot"
   sodipodi:docname="only-welder-logo.svg"
   inkscape:version="1.2.2 (732a01da63, 2022-12-09)"
   xmlns:inkscape="http://www.inkscape.org/namespaces/inkscape"
   xmlns:sodipodi="http://sodipodi.sourceforge.net/DTD/sodipodi-0.dtd"
   xmlns="http://www.w3.org/2000/svg"
   xmlns:svg="http://www.w3.org/2000/svg">
  <sodipodi:namedview
     id="namedview1191"
     pagecolor="#ffffff"
     bordercolor="#999999"
     borderopacity="1"
     inkscape:showpageshadow="0"
     inkscape:pageopacity="0"
     inkscape:pagecheckerboard="0"
     inkscape:deskcolor="#d1d1d1"
     inkscape:document-units="px"
     showgrid="false"
     inkscape:zoom="0.78127806"
     inkscape:cx="396.78575"
     inkscape:cy="152.31453"
     inkscape:window-width="1858"
     inkscape:window-height="1057"
     inkscape:window-x="54"
     inkscape:window-y="-8"
     inkscape:window-maximized="1"
     inkscape:current-layer="layer1" />
  <defs
     id="defs1186" />
  <g
     inkscape:label="Capa 1"
     inkscape:groupmode="layer"
     id="layer1">
    <g
       id="layer1-4"
       inkscape:label="SVG"
       style="display:inline;fill:#666666"
       transform="translate(-3.6653665,-23.227681)">
      <g
         id="g459"
         inkscape:label="chispitas"
         style="fill:#666666">
        <circle
           style="fill:#666666"
           id="path176"
           cx="147.05357"
           cy="175.6019"
           r="3.2711613" />
        <circle
           style="fill:#666666"
           id="circle232"
           cx="136.19926"
           cy="163.2607"
           r="3.2711613" />
        <circle
           style="fill:#666666"
           id="circle234"
           cx="150.91949"
           cy="161.03036"
           r="3.2711613" />
        <circle
           style="fill:#666666"
           id="circle236"
           cx="153.74458"
           cy="146.60751"
           r="3.2711613" />
        <circle
           style="fill:#666666"
           id="circle238"
           cx="130.69777"
           cy="149.72998"
           r="3.2711613" />
        <circle
           style="fill:#666666"
           id="circle240"
           cx="124.75021"
           cy="136.34796"
           r="3.2711613" />
        <circle
           style="fill:#666666"
           id="circle242"
           cx="118.50527"
           cy="123.11462"
           r="3.2711613" />
        <circle
           style="fill:#666666"
           id="circle244"
           cx="113.18357"
           cy="110.00002"
           r="3.2711613" />
        <circle
           style="fill:#666666"
           id="circle246"
           cx="107.68208"
           cy="96.469299"
           r="3.2711613" />
        <circle
           style="fill:#666666"
           id="circle248"
           cx="101.73452"
           cy="83.08728"
           r="3.2711613" />
        <circle
           style="fill:#666666"
           id="circle250"
           cx="95.489578"
           cy="69.853935"
           r="3.2711613" />
        <circle
           style="fill:#666666"
           id="circle281"
           cx="90.178261"
           cy="55.985504"
           r="3.2711613" />
        <circle
           style="fill:#666666"
           id="circle283"
           cx="67.80574"
           cy="197.76144"
           r="3.2711613"
           transform="rotate(-16.5)" />
        <circle
           style="fill:#666666"
           id="circle285"
           cx="62.304256"
           cy="184.23073"
           r="3.2711613"
           transform="rotate(-16.5)" />
        <circle
           style="fill:#666666"
           id="circle287"
           cx="56.356705"
           cy="170.84871"
           r="3.2711613"
           transform="rotate(-16.5)" />
        <circle
           style="fill:#666666"
           id="circle289"
           cx="50.111763"
           cy="157.61536"
           r="3.2711613"
           transform="rotate(-16.5)" />
        <circle
           style="fill:#666666"
           id="circle291"
           cx="44.790066"
           cy="144.50078"
           r="3.2711613"
           transform="rotate(-16.5)" />
        <circle
           style="fill:#666666"
           id="circle293"
           cx="39.288578"
           cy="130.97008"
           r="3.2711613"
           transform="rotate(-16.5)" />
        <circle
           style="fill:#666666"
           id="circle295"
           cx="33.341015"
           cy="117.58807"
           r="3.2711613"
           transform="rotate(-16.5)" />
        <circle
           style="fill:#666666"
           id="circle297"
           cx="27.096071"
           cy="104.35471"
           r="3.2711613"
           transform="rotate(-16.5)" />
        <circle
           style="fill:#666666"
           id="circle299"
           cx="21.547712"
           cy="91.286499"
           r="3.2711613"
           transform="rotate(-16.5)" />
        <circle
           style="fill:#666666"
           id="circle301"
           cx="15.463601"
           cy="77.29818"
           r="3.2711613"
           transform="rotate(-16.5)" />
        <circle
           style="fill:#666666"
           id="circle303"
           cx="9.6241026"
           cy="64.687973"
           r="3.2711613"
           transform="rotate(-16.5)" />
        <circle
           style="fill:#666666"
           id="circle305"
           cx="73.786034"
           cy="210.63097"
           r="3.2711613"
           transform="rotate(-16.5)" />
        <circle
           style="fill:#666666"
           id="circle307"
           cx="58.412472"
           cy="220.65694"
           r="3.2711613"
           transform="rotate(-16.5)" />
        <circle
           style="fill:#666666"
           id="circle309"
           cx="51.181946"
           cy="233.31259"
           r="3.2711613"
           transform="rotate(-16.5)" />
        <circle
           style="fill:#666666"
           id="circle311"
           cx="-228.10677"
           cy="43.023136"
           r="3.2711613"
           transform="rotate(-105)" />
        <circle
           style="fill:#666666"
           id="circle313"
           cx="-224.24084"
           cy="28.451605"
           r="3.2711613"
           transform="rotate(-105)" />
        <circle
           style="fill:#666666"
           id="circle315"
           cx="-221.41576"
           cy="14.028753"
           r="3.2711613"
           transform="rotate(-105)" />
        <circle
           style="fill:#666666"
           id="circle317"
           cx="-217.53294"
           cy="1.1426322"
           r="3.2711613"
           transform="rotate(-105)" />
        <circle
           style="fill:#666666"
           id="circle319"
           cx="-213.66702"
           cy="-13.428899"
           r="3.2711613"
           transform="rotate(-105)" />
        <circle
           style="fill:#666666"
           id="circle321"
           cx="-210.84193"
           cy="-27.851751"
           r="3.2711613"
           transform="rotate(-105)" />
        <circle
           style="fill:#666666"
           id="circle323"
           cx="-21.607775"
           cy="195.48747"
           r="3.2711613"
           transform="rotate(-35.5)" />
        <circle
           style="fill:#666666"
           id="circle325"
           cx="-27.109257"
           cy="181.95676"
           r="3.2711613"
           transform="rotate(-35.5)" />
        <circle
           style="fill:#666666"
           id="circle327"
           cx="-33.056808"
           cy="168.57474"
           r="3.2711613"
           transform="rotate(-35.5)" />
        <circle
           style="fill:#666666"
           id="circle329"
           cx="-39.301746"
           cy="155.34138"
           r="3.2711613"
           transform="rotate(-35.5)" />
        <circle
           style="fill:#666666"
           id="circle331"
           cx="-44.623447"
           cy="142.22681"
           r="3.2711613"
           transform="rotate(-35.5)" />
        <circle
           style="fill:#666666"
           id="circle333"
           cx="-50.124935"
           cy="128.69606"
           r="3.2711613"
           transform="rotate(-35.5)" />
        <circle
           style="fill:#666666"
           id="circle335"
           cx="-56.072495"
           cy="115.31406"
           r="3.2711613"
           transform="rotate(-35.5)" />
        <circle
           style="fill:#666666"
           id="circle337"
           cx="-15.627483"
           cy="208.35699"
           r="3.2711613"
           transform="rotate(-35.5)" />
        <circle
           style="fill:#666666"
           id="circle339"
           cx="-62.605679"
           cy="102.19647"
           r="3.2711613"
           transform="rotate(-35.5)" />
        <circle
           style="fill:#666666"
           id="circle341"
           cx="-101.24762"
           cy="183.27377"
           r="3.2711613"
           transform="rotate(-54.5)" />
        <circle
           style="fill:#666666"
           id="circle343"
           cx="-106.74911"
           cy="169.74306"
           r="3.2711613"
           transform="rotate(-54.5)" />
        <circle
           style="fill:#666666"
           id="circle345"
           cx="-112.69666"
           cy="156.36104"
           r="3.2711613"
           transform="rotate(-54.5)" />
        <circle
           style="fill:#666666"
           id="circle347"
           cx="-118.94159"
           cy="143.12769"
           r="3.2711613"
           transform="rotate(-54.5)" />
        <circle
           style="fill:#666666"
           id="circle349"
           cx="-124.26329"
           cy="130.01311"
           r="3.2711613"
           transform="rotate(-54.5)" />
        <circle
           style="fill:#666666"
           id="circle351"
           cx="-129.76476"
           cy="116.48235"
           r="3.2711613"
           transform="rotate(-54.5)" />
        <circle
           style="fill:#666666"
           id="circle353"
           cx="-95.267334"
           cy="196.1433"
           r="3.2711613"
           transform="rotate(-54.5)" />
      </g>
      <path
         id="path409"
         style="fill:#666666"
         inkscape:label="figura_hombre"
         d="m 184.49414,28.787109 c -2.82163,-0.110652 -5.53305,-0.01683 -7.74609,0.425782 -8.85218,1.770436 -25.67081,7.670358 -31.57227,14.457031 -5.90145,6.786673 -12.98212,17.70507 -13.57226,21.541016 -0.59015,3.835946 -0.88552,17.11448 0.58984,18.589843 1.47537,1.475364 10.91797,14.753907 10.91797,14.753907 l 25.08008,-19.47461 12.6875,14.753906 -24.49024,19.179686 30.6875,33.04688 12.09766,0.88672 c 0,0 12.68884,-5.90325 13.86914,-7.96875 1.18029,-2.06551 3.54101,0.59179 3.54101,0.59179 l -14.7539,45.44141 14.16406,20.35937 c 0,0 -1.18074,5.01563 -2.95117,5.01563 -1.77044,0 -5.60712,1.77029 -6.19727,0.29492 -0.59014,-1.47536 -13.57226,-19.47461 -13.57226,-19.47461 l -53.99805,0.29492 c 0,0 -7.96815,6.49142 -9.14844,11.80274 -1.18029,5.3113 2.36043,15.04852 4.13086,15.63867 1.77044,0.59014 4.13146,3.83609 6.78711,3.54102 2.65566,-0.29507 85.86719,-0.58985 85.86719,-0.58985 l 37.76758,-84.39062 c 0,0 3.541,-2.95013 7.37695,-1.17969 3.83595,1.77043 4.72145,4.72099 3.24609,7.9668 -1.47536,3.24579 -35.4082,77.01367 -35.4082,77.01367 l 89.99805,-0.29492 c 0,0 -6.19694,-45.44091 -18.29492,-69.3418 C 299.49968,127.76708 290.9416,103.27555 271.4668,95.308594 251.992,87.34163 236.64844,102.0957 236.64844,102.0957 l -2.06446,-0.88476 c 0,0 -0.29612,-7.08247 -1.77148,-13.869143 -1.47537,-6.786673 -10.91797,-23.015625 -10.91797,-23.015625 l 9.44336,-7.966797 -10.91797,-13.279297 -5.90234,5.607422 -12.09766,-17.410156 c 0,0 -9.46088,-2.158278 -17.92578,-2.490235 z m 12.17188,21.669922 a 4.5736322,4.5736322 0 0 1 4.57421,4.574219 4.5736322,4.5736322 0 0 1 -4.57421,4.574219 4.5736322,4.5736322 0 0 1 -4.57422,-4.574219 4.5736322,4.5736322 0 0 1 4.57422,-4.574219 z" />
    </g>
  </g>
</svg>
